<svg width="28" height="27" viewBox="0 0 28 27" fill="none" xmlns="http://www.w3.org/2000/svg">
<path d="M26.75 12.8542C26.7549 14.559 26.318 16.2408 25.475 17.7625C24.4754 19.586 22.9388 21.1198 21.0372 22.192C19.1356 23.2642 16.9442 23.8326 14.7083 23.8334C12.8385 23.8378 10.994 23.4395 9.325 22.6709L1.25 25.125L3.94167 17.7625C3.09865 16.2408 2.66179 14.559 2.66667 12.8542C2.66753 10.8156 3.29087 8.81755 4.46685 7.08375C5.64284 5.34994 7.32503 3.94889 9.325 3.03754C10.994 2.26891 12.8385 1.87059 14.7083 1.87504H15.4167C18.3695 2.02357 21.1585 3.15994 23.2496 5.06656C25.3408 6.97319 26.5871 9.51609 26.75 12.2084V12.8542Z" stroke="#0066FF" stroke-width="2" stroke-linecap="round" stroke-linejoin="round"/>
</svg>
