<svg width="28" height="25" viewBox="0 0 28 25" fill="none" xmlns="http://www.w3.org/2000/svg">
<path d="M13.7602 21.1853L13.624 21.3215L13.4741 21.1853C7.00273 15.3134 2.7248 11.4305 2.7248 7.49319C2.7248 4.76839 4.76839 2.7248 7.49319 2.7248C9.59128 2.7248 11.6349 4.08719 12.3569 5.94005H14.891C15.6131 4.08719 17.6567 2.7248 19.7548 2.7248C22.4796 2.7248 24.5232 4.76839 24.5232 7.49319C24.5232 11.4305 20.2452 15.3134 13.7602 21.1853ZM19.7548 0C17.3842 0 15.109 1.10354 13.624 2.83379C12.139 1.10354 9.86376 0 7.49319 0C3.297 0 0 3.28338 0 7.49319C0 12.6294 4.63215 16.8392 11.6485 23.2016L13.624 25L15.5995 23.2016C22.6158 16.8392 27.248 12.6294 27.248 7.49319C27.248 3.28338 23.951 0 19.7548 0Z" fill="#0066FF"/>
</svg>
