<svg width="22" height="22" viewBox="0 0 22 22" fill="none" xmlns="http://www.w3.org/2000/svg">
<path d="M21.4735 0.529902C21.236 0.293513 20.9381 0.127333 20.6125 0.0496242C20.2869 -0.0280842 19.9463 -0.0143128 19.628 0.089425L1.2617 6.23093C0.921075 6.33913 0.620077 6.54609 0.39672 6.82569C0.173363 7.10528 0.0376679 7.44496 0.00677179 7.80182C-0.0241243 8.15868 0.051165 8.51671 0.223131 8.8307C0.395096 9.14469 0.656025 9.40055 0.97296 9.56596L8.59317 13.3415L12.3593 21.0058C12.5107 21.3058 12.7423 21.5576 13.0283 21.7332C13.3143 21.9088 13.6434 22.0012 13.9788 22H14.1043C14.4635 21.9735 14.8064 21.8393 15.0885 21.6148C15.3706 21.3904 15.5788 21.0861 15.6861 20.7415L21.9003 2.3799C22.0112 2.06267 22.03 1.72037 21.9545 1.39285C21.8789 1.06533 21.7121 0.766069 21.4735 0.529902ZM2.04004 7.96766L18.0713 2.60643L9.17065 11.5292L2.04004 7.96766ZM14.0667 20.0116L10.5014 12.8632L19.4021 3.94045L14.0667 20.0116Z" fill="#0066FF"/>
</svg>
